HIERARCHY
ROOT Hips
{
	OFFSET 0.000000 0.000000 0.000000
	CHANNELS 6 Xposition Yposition Zposition Xrotation Yrotation Zrotation
	JOINT LeftUpLeg_virtual
	{
		OFFSET 0.000000 0.000000 0.000000
		CHANNELS 3 Xrotation Yrotation Zrotation
		JOINT LeftUpLeg
		{
			OFFSET 10.205400 -3.823500 0.155100
			CHANNELS 3 Xrotation Yrotation Zrotation
			JOINT LeftLeg
			{
				OFFSET 0.708757 -12.982077 0.567790
				CHANNELS 3 Xrotation Yrotation Zrotation
				JOINT LeftFoot
				{
					OFFSET -0.708756 -10.717838 -2.184338
					CHANNELS 3 Xrotation Yrotation Zrotation
					JOINT LeftToeBase
					{
						OFFSET 0.108149 -7.191104 7.560241
						CHANNELS 3 Xrotation Yrotation Zrotation
						JOINT LeftToe_End
						{
							OFFSET 0.070230 0.081724 4.490308
							CHANNELS 3 Xrotation Yrotation Zrotation
							End Site
							{
								OFFSET 0 0 0
							}
						}
					}
				}
			}
		}
	}
	JOINT RightUpLeg_virtual
	{
		OFFSET 0.000000 0.000000 0.000000
		CHANNELS 3 Xrotation Yrotation Zrotation
		JOINT RightUpLeg
		{
			OFFSET -10.205400 -3.823500 0.005500
			CHANNELS 3 Xrotation Yrotation Zrotation
			JOINT RightLeg
			{
				OFFSET -0.708756 -12.982134 0.610632
				CHANNELS 3 Xrotation Yrotation Zrotation
				JOINT RightFoot
				{
					OFFSET 0.708754 -10.717769 -1.945823
					CHANNELS 3 Xrotation Yrotation Zrotation
					JOINT RightToeBase
					{
						OFFSET -0.108140 -7.191069 7.372968
						CHANNELS 3 Xrotation Yrotation Zrotation
						JOINT RightToe_End
						{
							OFFSET -0.070227 0.081735 4.479403
							CHANNELS 3 Xrotation Yrotation Zrotation
							End Site
							{
								OFFSET 0 0 0
							}
						}
					}
				}
			}
		}
	}
	JOINT Spine_virtual
	{
		OFFSET 0.000000 0.000000 0.000000
		CHANNELS 3 Xrotation Yrotation Zrotation
		JOINT Spine
		{
			OFFSET 0.000000 6.876099 0.125700
			CHANNELS 3 Xrotation Yrotation Zrotation
			JOINT Spine1
			{
				OFFSET 0.000000 5.730043 0.104720
				CHANNELS 3 Xrotation Yrotation Zrotation
				JOINT Spine1_split
				{
					OFFSET 0.000000 5.730043 0.104720
					CHANNELS 3 Xrotation Yrotation Zrotation
					JOINT Spine2
					{
						OFFSET 0.000000 5.730043 0.104720
						CHANNELS 3 Xrotation Yrotation Zrotation
						JOINT Neck_virtual
						{
							OFFSET 0.000000 0.000000 0.000000
							CHANNELS 3 Xrotation Yrotation Zrotation
							JOINT Neck
							{
								OFFSET 0.000000 10.314075 0.188496
								CHANNELS 3 Xrotation Yrotation Zrotation
								JOINT Head
								{
									OFFSET 0.000000 7.643700 -2.377400
									CHANNELS 3 Xrotation Yrotation Zrotation
									JOINT HeadTop_End
									{
										OFFSET 0.000000 43.788605 -13.619600
										CHANNELS 3 Xrotation Yrotation Zrotation
										End Site
										{
											OFFSET 0 0 0
										}
									}
								}
							}
						}
						JOINT LeftShoulder_virtual
						{
							OFFSET 0.000000 0.000000 0.000000
							CHANNELS 3 Xrotation Yrotation Zrotation
							JOINT LeftShoulder
							{
								OFFSET 2.196100 4.412489 0.087492
								CHANNELS 3 Xrotation Yrotation Zrotation
								JOINT LeftShoulder_split
								{
									OFFSET 2.196100 4.412489 0.087492
									CHANNELS 3 Xrotation Yrotation Zrotation
									JOINT LeftArm
									{
										OFFSET 8.771219 -2.981674 -0.026999
										CHANNELS 3 Xrotation Yrotation Zrotation
										JOINT LeftForeArm
										{
											OFFSET 8.512804 0.000000 -0.000000
											CHANNELS 3 Xrotation Yrotation Zrotation
											JOINT LeftHand
											{
												OFFSET 18.484802 0.000000 -0.000000
												CHANNELS 3 Xrotation Yrotation Zrotation
												End Site
												{
													OFFSET 0 0 0
												}
											}
										}
									}
								}
							}
						}
						JOINT RightShoulder_virtual
						{
							OFFSET 0.000000 0.000000 0.000000
							CHANNELS 3 Xrotation Yrotation Zrotation
							JOINT RightShoulder
							{
								OFFSET -2.196100 4.412496 0.070690
								CHANNELS 3 Xrotation Yrotation Zrotation
								JOINT RightShoulder_split
								{
									OFFSET -2.196100 4.412496 0.070690
									CHANNELS 3 Xrotation Yrotation Zrotation
									JOINT RightArm
									{
										OFFSET -8.771282 -2.981682 -0.094208
										CHANNELS 3 Xrotation Yrotation Zrotation
										JOINT RightForeArm
										{
											OFFSET -8.494598 0.000000 0.000000
											CHANNELS 3 Xrotation Yrotation Zrotation
											JOINT RightHand
											{
												OFFSET -18.483803 0.000000 0.000001
												CHANNELS 3 Xrotation Yrotation Zrotation
												End Site
												{
													OFFSET 0 0 0
												}
											}
										}
									}
								}
							}
						}
					}
				}
			}
		}
	}
}
MOTION
Frames: 4
Frame Time: 0.03333333
4.909705 49.977142 -6.321611 0.000000 0.000000 0.000000 -90.547893 -5.836548 -0.940634 12.351143 32.534056 7.450947 1.228565 -20.361275 -11.942804 14.074448 34.678448 -14.210615 10.700339 -0.041678 8.380837 0.000000 0.000000 0.000000 -88.608024 -2.709467 1.597112 11.655620 -12.416384 -9.111617 -4.654671 15.163836 -12.544616 18.060437 -31.175224 25.959278 4.913346 -3.192310 -37.794435 0.000000 0.000000 0.000000 -92.583638 2.945333 5.819711 0.526349 -2.435505 -0.528583 5.352615 -5.546313 2.327340 0.155658 0.769841 -0.159930 0.000000 0.000000 0.000000 3.955528 -2.860973 1.093072 -25.806012 -0.790030 -3.365725 1.301147 -59.794502 21.136078 0.000000 0.000000 0.000000 3.335481 -4.574337 0.192210 -0.876806 -0.406493 -8.022539 3.417929 5.678060 -5.012455 43.997326 -23.500961 -43.804206 17.003457 -70.950420 12.187130 0.000000 0.000000 0.000000 6.332808 -3.137542 1.541268 -3.809824 -2.084581 15.777703 7.826686 5.069857 0.463898 43.704639 37.305868 34.219726 -75.460210 88.752748 66.435624 0.000000 0.000000 0.000000 
4.907908 49.983841 -6.298323 0.000000 0.000000 0.000000 -90.551827 -5.712269 -0.734660 12.405740 32.327470 7.419081 1.168666 -20.350035 -11.955666 14.036099 34.841314 -14.011112 10.810511 -0.025744 8.280191 0.000000 0.000000 0.000000 -88.664653 -2.784356 1.632671 11.490232 -12.388289 -9.103476 -4.303842 15.367396 -12.625763 17.865555 -31.130264 25.835477 5.109107 -3.238963 -37.825943 0.000000 0.000000 0.000000 -92.698863 2.703855 5.848572 0.455569 -2.539252 -0.536456 5.356830 -5.384783 2.426200 0.063362 0.771873 -0.174172 0.000000 0.000000 0.000000 4.020261 -2.692488 1.074966 -25.929551 -0.919906 -3.303489 1.232486 -60.144761 20.908039 0.000000 0.000000 0.000000 3.564517 -4.424418 0.333205 -0.971615 -0.802405 -8.011532 3.691917 6.050300 -4.952181 43.739835 -23.279901 -43.815056 17.076460 -70.190903 12.129331 0.000000 0.000000 0.000000 6.529426 -2.962580 1.525494 -3.831791 -2.150815 15.329376 8.312286 5.768183 0.007737 41.811467 38.237817 33.973385 -112.666026 89.041413 103.751065 0.000000 0.000000 0.000000 
4.900708 49.998276 -6.258308 0.000000 0.000000 0.000000 -90.482870 -5.687298 -0.523191 12.436787 32.104819 7.383443 1.042825 -20.258795 -12.008518 14.040588 35.084605 -13.918465 10.877450 -0.011482 8.140016 0.000000 0.000000 0.000000 -88.561578 -2.855570 1.745603 11.117669 -12.303609 -9.220313 -3.838927 15.729740 -12.748610 17.834983 -30.894684 25.793846 5.090004 -3.280235 -38.024206 0.000000 0.000000 0.000000 -92.618274 2.531213 5.990702 0.417389 -2.695468 -0.701707 5.387824 -5.065918 2.480462 0.013302 0.770581 -0.175282 0.000000 0.000000 0.000000 4.245020 -2.366573 1.098400 -25.757825 -0.924727 -3.443106 0.065632 -60.600963 20.238660 0.000000 0.000000 0.000000 3.794646 -4.111393 0.474425 -1.015643 -1.288184 -7.909327 3.644993 6.101132 -5.207571 43.140646 -22.607159 -43.820650 16.535526 -70.198096 11.783259 0.000000 0.000000 0.000000 6.727544 -2.706896 1.457578 -3.863499 -2.323025 14.715325 9.001902 5.890380 -0.013908 37.790883 39.698094 34.714464 -174.648757 88.796994 165.863303 0.000000 0.000000 0.000000 
4.892034 50.019341 -6.226248 0.000000 0.000000 0.000000 -90.367979 -5.843445 -0.399147 12.417684 31.875031 7.348221 0.918949 -20.171989 -12.083714 14.317732 35.279047 -14.098778 10.832797 -0.001260 8.006765 0.000000 0.000000 0.000000 -88.351311 -2.946498 1.920352 10.597103 -12.279275 -9.415263 -3.298508 16.049763 -12.905135 17.918680 -30.565073 25.723160 4.841758 -3.318220 -38.348599 0.000000 0.000000 0.000000 -92.316290 2.453091 6.220728 0.525752 -2.863115 -1.026063 5.508706 -4.593476 2.486583 0.020675 0.713375 -0.182874 0.000000 0.000000 0.000000 4.639803 -1.888029 1.152892 -25.299704 -0.928291 -3.608683 -2.005408 -61.164344 19.293672 0.000000 0.000000 0.000000 4.041196 -3.618781 0.596107 -0.985438 -1.786391 -7.695829 3.433585 5.724876 -5.581339 42.195618 -21.534755 -43.697085 15.273261 -70.865835 11.022295 0.000000 0.000000 0.000000 6.945672 -2.338370 1.367033 -3.921216 -2.480920 14.104508 9.784509 5.412283 0.348755 31.705304 41.316156 36.920840 154.643392 87.540506 -163.266151 0.000000 0.000000 0.000000 
